<svg xmlns="http://www.w3.org/2000/svg"  viewBox="0 0 256 256" width="64px" height="64px"><path fill="#939598" d="M159.535,117.494h-54.613c-4.709,0-8.527-3.818-8.527-8.527v0c0-4.709,3.818-8.527,8.527-8.527h54.613 c4.709,0,8.527,3.818,8.527,8.527v0C168.062,113.676,164.245,117.494,159.535,117.494z"/><path fill="#808285" d="M162.516,100.986c0.347,0.929,0.546,1.93,0.546,2.981c0,4.709-3.818,8.527-8.527,8.527H99.922 c-1.05,0-2.052-0.199-2.981-0.546c1.21,3.237,4.322,5.546,7.981,5.546h54.613c4.709,0,8.527-3.818,8.527-8.527 C168.062,105.308,165.753,102.196,162.516,100.986z"/><path fill="#A54AF4" d="M192.229,19.866h-120v54.855c0,3.544,1.875,6.823,4.93,8.619l29.07,17.1h52l29.07-17.1 c3.054-1.797,4.93-5.076,4.93-8.619V19.866z"/><path fill="#B171F4" d="M78.229,68.132c-1.104,0-2-0.896-2-2v-32c0-1.104,0.896-2,2-2s2,0.896,2,2v32 C80.229,67.237,79.333,68.132,78.229,68.132z M78.229,28.132c-1.104,0-2-0.896-2-2v-0.266c0-1.104,0.896-2,2-2s2,0.896,2,2v0.266 C80.229,27.237,79.333,28.132,78.229,28.132z"/><path fill="#893ADD" d="M182.229,19.866v44.855c0,3.544-1.875,6.823-4.93,8.619l-29.07,17.1h-52L72.392,76.418 c0.495,2.868,2.209,5.417,4.767,6.922l29.07,17.1h52l29.07-17.1c3.054-1.797,4.93-5.076,4.93-8.619V19.866H182.229z"/><path fill="#6C2BC1" d="M187.229,19.866v49.855c0,3.544-1.875,6.823-4.93,8.619l-29.07,17.1h-52L73.185,78.944 c0.842,1.803,2.201,3.353,3.973,4.396l29.07,17.1h52l29.07-17.1c3.054-1.797,4.93-5.076,4.93-8.619V19.866H187.229z"/><path fill="#939598" d="M198.612,19.866H65.846c-3.654,0-6.617-2.962-6.617-6.617v0c0-3.654,2.962-6.617,6.617-6.617h132.766 c3.654,0,6.617,2.962,6.617,6.617v0C205.229,16.904,202.266,19.866,198.612,19.866z"/><path fill="#808285" d="M202.179,7.682c0.661,1.03,1.05,2.252,1.05,3.567v0c0,3.654-2.962,6.617-6.617,6.617H63.846 c-1.315,0-2.537-0.388-3.567-1.05c1.177,1.832,3.228,3.05,5.567,3.05h132.767c3.654,0,6.617-2.962,6.617-6.617v0 C205.229,10.91,204.012,8.859,202.179,7.682z"/><rect width="40" height="80.574" x="112.229" y="19.866" fill="#F1F2F2"/><rect width="40" height="5" x="112.229" y="95.44" fill="#E6E7E8"/><path fill="#FFC91D" d="M192.229,210.5v-57.735c0-3.573-1.906-6.874-5-8.66l-50-28.868c-3.094-1.786-6.906-1.786-10,0l-50,28.868 c-3.094,1.786-5,5.088-5,8.66V210.5c0,3.573,1.906,6.874,5,8.66l50,28.868c3.094,1.786,6.906,1.786,10,0l50-28.868 C190.323,217.374,192.229,214.073,192.229,210.5z"/><path fill="#FFA91A" d="M187.229,144.105l-0.948-0.548c0.604,1.3,0.948,2.726,0.948,4.208V205.5c0,3.573-1.906,6.874-5,8.66 l-50,28.867c-3.094,1.786-6.906,1.786-10,0l-49.052-28.32c0.853,1.834,2.241,3.407,4.052,4.452l50,28.867 c3.094,1.786,6.906,1.786,10,0l50-28.867c3.094-1.786,5-5.088,5-8.66v-57.735C192.229,149.192,190.323,145.891,187.229,144.105z"/><path fill="#F79219" d="M178.383,202.506v-41.747c0-3.573-1.906-6.874-5-8.66l-36.154-20.873c-3.094-1.786-6.906-1.786-10,0 l-36.154,20.873c-3.094,1.786-5,5.088-5,8.66v41.747c0,3.573,1.906,6.874,5,8.66l36.154,20.873c3.094,1.786,6.906,1.786,10,0 l36.154-20.873C176.477,209.38,178.383,206.079,178.383,202.506z"/><path fill="#EF7816" d="M173.383,152.099l-0.948-0.548c0.604,1.3,0.948,2.726,0.948,4.208v41.747c0,3.573-1.906,6.874-5,8.66 l-36.154,20.873c-3.094,1.786-6.906,1.786-10,0l-35.206-20.326c0.853,1.834,2.241,3.407,4.052,4.452l36.154,20.873 c3.094,1.786,6.906,1.786,10,0l36.154-20.873c3.094-1.786,5-5.088,5-8.66v-41.747 C178.383,157.186,176.477,153.885,173.383,152.099z"/><path fill="#FFF" d="M134.131,154.375l6.088,18.736h19.701c1.937,0,2.743,2.479,1.176,3.618l-15.938,11.58l6.088,18.736 c0.599,1.843-1.51,3.375-3.078,2.236l-15.938-11.58l-15.938,11.58c-1.567,1.139-3.676-0.393-3.078-2.236l6.088-18.736 l-15.938-11.58c-1.567-1.139-0.762-3.618,1.176-3.618h19.7l6.088-18.736C130.925,152.532,133.532,152.532,134.131,154.375z"/><path fill="#FFC91D" d="M48.201,185.464l0.638,2.972c0.671,3.123,3.11,5.562,6.233,6.233l2.972,0.638 c0.717,0.154,0.717,1.176,0,1.33l-2.972,0.638c-3.123,0.671-5.562,3.11-6.233,6.233l-0.638,2.972 c-0.154,0.717-1.176,0.717-1.33,0l-0.638-2.972c-0.671-3.123-3.11-5.562-6.233-6.233l-2.972-0.638 c-0.717-0.154-0.717-1.176,0-1.33L40,194.669c3.123-0.671,5.562-3.11,6.233-6.233l0.638-2.972 C47.025,184.748,48.047,184.748,48.201,185.464z"/><path fill="#FFC91D" d="M60.974,215.742l0.935,4.355c0.983,4.576,4.557,8.15,9.133,9.133l4.355,0.935 c1.05,0.225,1.05,1.724,0,1.949l-4.355,0.935c-4.576,0.983-8.15,4.557-9.133,9.133l-0.935,4.355c-0.225,1.05-1.724,1.05-1.949,0 l-0.935-4.355c-0.983-4.576-4.557-8.15-9.133-9.133l-4.355-0.935c-1.05-0.225-1.05-1.724,0-1.949l4.355-0.935 c4.576-0.983,8.15-4.557,9.133-9.133l0.935-4.355C59.25,214.692,60.749,214.692,60.974,215.742z"/><path fill="#FFC91D" d="M206.316,120.427l0.811,3.778c0.852,3.969,3.953,7.069,7.922,7.922l3.778,0.811 c0.911,0.196,0.911,1.495,0,1.691l-3.778,0.811c-3.969,0.852-7.069,3.953-7.922,7.922l-0.811,3.778 c-0.196,0.911-1.495,0.911-1.691,0l-0.811-3.778c-0.852-3.969-3.953-7.069-7.922-7.922l-3.778-0.811 c-0.911-0.196-0.911-1.495,0-1.691l3.778-0.811c3.969-0.852,7.069-3.953,7.922-7.922l0.811-3.778 C204.821,119.517,206.12,119.517,206.316,120.427z"/></svg>