<?xml version="1.0" encoding="UTF-8"?>
<svg xmlns="http://www.w3.org/2000/svg" xmlns:xlink="http://www.w3.org/1999/xlink" viewBox="0 0 16 16" width="32px" height="32px">
<g id="surface23435927">
<path style=" stroke:none;fill-rule:nonzero;fill:rgb(20.392157%,59.607846%,85.882354%);fill-opacity:1;" d="M 7.5 1 C 3.917969 1 1 3.917969 1 7.5 C 1 11.082031 3.917969 14 7.5 14 C 11.082031 14 14 11.082031 14 7.5 C 14 3.917969 11.082031 1 7.5 1 Z M 7.5 2 C 10.542969 2 13 4.457031 13 7.5 C 13 10.542969 10.542969 13 7.5 13 C 4.457031 13 2 10.542969 2 7.5 C 2 4.457031 4.457031 2 7.5 2 Z M 7.699219 3.660156 C 7.5 3.660156 7.339844 3.824219 7.339844 4.027344 L 7.339844 4.445312 L 7.300781 4.433594 L 7.199219 4.402344 L 7.105469 4.378906 C 7.105469 4.378906 7.105469 4.378906 7.101562 4.378906 L 6.398438 4.1875 C 6.367188 4.179688 6.339844 4.210938 6.355469 4.238281 L 6.46875 4.445312 C 6.480469 4.472656 6.496094 4.5 6.507812 4.527344 C 6.527344 4.566406 6.542969 4.605469 6.5625 4.644531 C 6.578125 4.679688 6.59375 4.710938 6.613281 4.746094 C 6.648438 4.828125 6.6875 4.914062 6.726562 5.007812 C 6.753906 5.070312 6.78125 5.132812 6.800781 5.199219 C 6.867188 5.363281 6.925781 5.535156 6.976562 5.714844 C 6.996094 5.773438 7.007812 5.828125 7.027344 5.886719 L 7.03125 5.917969 C 7.050781 6.003906 7.074219 6.082031 7.085938 6.167969 C 7.097656 6.226562 7.105469 6.277344 7.113281 6.332031 C 7.117188 6.398438 7.125 6.457031 7.128906 6.523438 C 7.132812 6.578125 7.136719 6.636719 7.136719 6.695312 C 7.136719 6.839844 7.121094 6.980469 7.09375 7.117188 C 7.082031 7.152344 7.070312 7.199219 7.058594 7.238281 C 7.046875 7.28125 7.027344 7.328125 7.011719 7.378906 C 7 7.40625 6.988281 7.4375 6.976562 7.464844 C 6.910156 7.621094 6.828125 7.777344 6.746094 7.921875 C 6.625 8.140625 6.5 8.328125 6.414062 8.453125 C 6.402344 8.46875 6.394531 8.484375 6.382812 8.5 C 6.355469 8.539062 6.382812 8.59375 6.429688 8.59375 L 7.339844 8.59375 L 7.339844 9.3125 L 6.417969 9.3125 C 6.171875 9.3125 5.941406 9.167969 5.832031 8.945312 C 5.773438 8.832031 5.753906 8.710938 5.765625 8.589844 C 5.769531 8.554688 5.742188 8.519531 5.707031 8.519531 L 3.847656 8.519531 C 3.816406 8.519531 3.789062 8.542969 3.789062 8.578125 L 3.789062 8.613281 C 3.789062 9.800781 4.746094 10.761719 5.929688 10.761719 L 9.265625 10.761719 C 10.0625 10.761719 10.421875 9.828125 10.890625 9.179688 C 11.074219 8.921875 11.511719 8.71875 11.644531 8.664062 C 11.664062 8.65625 11.679688 8.636719 11.679688 8.613281 L 11.679688 8.199219 C 11.679688 8.160156 11.640625 8.132812 11.605469 8.144531 L 9.660156 8.707031 C 9.648438 8.710938 9.640625 8.714844 9.632812 8.722656 C 9.417969 8.957031 9.234375 9.117188 9.195312 9.152344 C 9.074219 9.253906 8.925781 9.3125 8.769531 9.3125 L 8.0625 9.3125 L 8.0625 8.59375 L 8.621094 8.59375 C 8.636719 8.59375 8.648438 8.585938 8.660156 8.578125 L 8.734375 8.511719 C 8.761719 8.484375 8.800781 8.449219 8.847656 8.40625 C 8.871094 8.378906 8.902344 8.351562 8.929688 8.320312 C 8.957031 8.289062 8.984375 8.257812 9.011719 8.226562 C 9.054688 8.179688 9.097656 8.128906 9.144531 8.078125 C 9.175781 8.042969 9.203125 8.003906 9.230469 7.96875 C 9.261719 7.929688 9.292969 7.890625 9.324219 7.851562 C 9.34375 7.820312 9.367188 7.789062 9.390625 7.753906 C 9.410156 7.722656 9.429688 7.6875 9.449219 7.65625 C 9.503906 7.570312 9.554688 7.480469 9.59375 7.390625 C 9.613281 7.34375 9.628906 7.296875 9.644531 7.253906 C 9.660156 7.207031 9.671875 7.164062 9.683594 7.117188 C 9.707031 7.003906 9.710938 6.894531 9.703125 6.789062 C 9.699219 6.753906 9.695312 6.71875 9.6875 6.6875 L 9.6875 6.683594 C 9.683594 6.660156 9.679688 6.632812 9.671875 6.613281 C 9.648438 6.503906 9.613281 6.398438 9.5625 6.296875 C 9.546875 6.257812 9.53125 6.214844 9.511719 6.179688 C 9.472656 6.101562 9.425781 6.023438 9.375 5.949219 C 9.359375 5.917969 9.339844 5.890625 9.320312 5.863281 C 9.28125 5.804688 9.234375 5.746094 9.195312 5.691406 C 9.164062 5.652344 9.128906 5.609375 9.09375 5.566406 C 9.058594 5.523438 9.023438 5.484375 8.988281 5.445312 C 8.867188 5.304688 8.742188 5.183594 8.625 5.078125 C 8.605469 5.054688 8.582031 5.035156 8.558594 5.015625 C 8.46875 4.933594 8.386719 4.863281 8.320312 4.808594 C 8.285156 4.78125 8.257812 4.753906 8.234375 4.734375 C 8.199219 4.710938 8.171875 4.691406 8.15625 4.675781 C 8.148438 4.671875 8.144531 4.671875 8.136719 4.667969 L 8.0625 4.648438 L 8.0625 4.027344 C 8.0625 3.925781 8.019531 3.832031 7.957031 3.769531 C 7.890625 3.703125 7.800781 3.660156 7.699219 3.660156 Z M 6.003906 5.042969 C 5.980469 5.039062 5.960938 5.046875 5.949219 5.066406 L 4.285156 7.671875 L 4.257812 7.714844 C 4.234375 7.753906 4.261719 7.800781 4.308594 7.800781 L 6.019531 7.800781 C 6.035156 7.800781 6.054688 7.792969 6.066406 7.777344 C 6.089844 7.742188 6.109375 7.707031 6.128906 7.671875 C 6.277344 7.425781 6.40625 7.152344 6.457031 6.953125 C 6.566406 6.472656 6.328125 5.695312 6.050781 5.074219 C 6.042969 5.054688 6.023438 5.042969 6.003906 5.039062 Z M 6.003906 5.042969 "/>
</g>
</svg>
