<svg xmlns="http://www.w3.org/2000/svg"  viewBox="0 0 64 64" width="24x" height="24px"><g data-name="Color copy"><path fill="#f9e109" d="M58,48.5V25a1,1,0,0,0-2,0V48.5A1.5,1.5,0,0,1,54.5,50,3.5,3.5,0,0,0,51,53.5V60a1,1,0,0,0,2,0V53.5A1.5,1.5,0,0,1,54.5,52,3.5,3.5,0,0,0,58,48.5Z"/><path fill="#f9e109" d="M58,55a3,3,0,1,0,3,3A3,3,0,0,0,58,55Zm0,4a1,1,0,1,1,1-1A1,1,0,0,1,58,59Z"/><path fill="#f9e109" d="M53,30a3,3,0,1,0-3,3A3,3,0,0,0,53,30Zm-4,0a1,1,0,1,1,1,1A1,1,0,0,1,49,30Z"/><path fill="#f9e109" d="M9,45a3,3,0,1,0-3,3A3,3,0,0,0,9,45ZM5,45a1,1,0,1,1,1,1A1,1,0,0,1,5,45Z"/><path fill="#f9e109" d="M6,9A3,3,0,1,0,3,6,3,3,0,0,0,6,9ZM6,5A1,1,0,1,1,5,6,1,1,0,0,1,6,5Z"/><path fill="#f9e109" d="M52.012,46.32a1,1,0,0,0,1.414-1.414l-.707-.707.707-.707a1,1,0,1,0-1.414-1.414l-.707.707-.707-.707a1,1,0,1,0-1.414,1.414l.707.707-.707.707A1,1,0,1,0,50.6,46.32l.707-.707Z"/><path fill="#f9e109" d="M16.426,32.078a1,1,0,0,0-1.414,0l-.707.707-.707-.707a1,1,0,1,0-1.414,1.414l.707.707-.707.707A1,1,0,1,0,13.6,36.32l.707-.707.707.707a1,1,0,0,0,1.414-1.414l-.707-.707.707-.707A1,1,0,0,0,16.426,32.078Z"/><path fill="#f9e109" d="M48,11.9a1.006,1.006,0,0,0,.5-.133l3.122-1.8a1,1,0,1,0-1-1.733l-3.122,1.8A1,1,0,0,0,48,11.9Z"/><path fill="#f9e109" d="M49,15a1,1,0,0,0,1,1h3a1,1,0,0,0,0-2H50A1,1,0,0,0,49,15Z"/><path fill="#f9e109" d="M46.447,4.105a1,1,0,0,0-1.342.448l-1,2a1,1,0,0,0,1.79.894l1-2A1,1,0,0,0,46.447,4.105Z"/><path fill="#f9e109" d="M13.366,40.475,7.715,36.842a3,3,0,0,1-.5-4.644l3.32-3.32A4.966,4.966,0,0,0,12,25.343V15a1,1,0,0,0-2,0V25.343a3.02,3.02,0,0,1-.878,2.121L5.8,30.784a5,5,0,0,0,.832,7.741l5.651,3.633a3,3,0,0,1,.5,4.644l-5.32,5.32A4.966,4.966,0,0,0,6,55.657V60a1,1,0,0,0,2,0V55.657a3.02,3.02,0,0,1,.878-2.121l5.32-5.32a5,5,0,0,0-.832-7.741Z"/><rect width="20" height="12" x="22" y="45" fill="#f9e109"/><path fill="#fcbc04" d="M37,54a11.994,11.994,0,0,1-11.607-9H22V57H42V54Z"/><polygon fill="#fcbc04" points="37 53 26 54 27 49 36 50 37 53"/><polygon fill="#fcbc04" points="35 41 29 41 29 29 35 31 35 41"/><polygon fill="#e59730" points="29 29 29 35 33 39 29 39 29 41 35 41 35 31 29 29"/><rect width="10" height="12" x="22.546" y="17.16" fill="#f9e109" transform="rotate(-30 27.546 23.16)"/><polygon fill="#84d2f4" points="21.751 31.124 26.215 30.856 20.215 20.464 17.751 24.196 21.751 31.124"/><path fill="#84d2f4" d="M28.876,15.464h0l6,10.392h0A25.419,25.419,0,0,1,46.061,22.5L49,22.321,39,5,37.378,7.457A25.416,25.416,0,0,1,28.876,15.464Z"/><path fill="#84d2f4" d="M38.621,37.551h0a3.07,3.07,0,0,1-3.741-.525l-6.933-7.17,4.331-2.5,6.671,5.1A3.069,3.069,0,0,1,38.621,37.551Z"/><rect width="10" height="4" x="22.546" y="21.16" fill="#c4f236" transform="rotate(-30 27.546 23.16)"/><path fill="#57b7eb" d="M41.536,17.392a8,8,0,0,1-10.928-2.928l-.045-.077c-.549.378-1.108.743-1.687,1.077l6,10.392A25.419,25.419,0,0,1,46.061,22.5L49,22.321l-4-6.929Z"/><path fill="#57b7eb" d="M35.521,34.549a3.9,3.9,0,0,1-.361-4.99l-2.882-2.2-4.331,2.5,6.933,7.17a3.062,3.062,0,0,0,3.6.588Z"/><path fill="#fcbc04" d="M27.144,16.464l4.5,7.794a6,6,0,0,1-8.2-2.2l-1.5-2.6-1.732,1,6,10.392,8.661-5-6-10.392Z"/><path fill="#a1d51c" d="M24.025,22.883l-1.81,1.045,2,3.464,4.059-2.343A5.994,5.994,0,0,1,24.025,22.883Z"/><rect width="2" height="4" x="30.01" y="19.16" fill="#a1d51c" transform="rotate(-30 31.01 21.161)"/><path fill="#57b7eb" d="M18.983,22.33l2,3.464a2.988,2.988,0,0,1-.324,3.439l1.092,1.891,4.464-.268-6-10.392Z"/><polygon fill="#f9e109" points="29 3 30.625 6.292 34.257 6.82 31.629 9.382 32.249 13 29 11.292 25.751 13 26.371 9.382 23.743 6.82 27.375 6.292 29 3"/><path fill="#f9e109" d="M17,57H47a2,2,0,0,1,2,2v2a0,0,0,0,1,0,0H15a0,0,0,0,1,0,0V59A2,2,0,0,1,17,57Z"/><rect width="11" height="4" x="26.5" y="41" fill="#f9e109"/><rect width="10" height="4" x="27" y="49" fill="#84d2f4"/><path fill="#fcbc04" d="M31,43a2,2,0,0,1-2-2H26.5v4h11V43Z"/><path fill="#57b7eb" d="M31,51a2.99,2.99,0,0,1-2.816-2H27v4H37V51Z"/><path fill="#4891d3" d="M27.279,49H27v4h5.214A12.011,12.011,0,0,1,27.279,49Z"/><path fill="#fcbc04" d="M18,57H17a2,2,0,0,0-2,2v2H49V59H20A2,2,0,0,1,18,57Z"/><path fill="#fcbc04" d="M32.25,13,29,11.29,25.75,13l.62-3.62L23.74,6.82l2.78-.41a1.31,1.31,0,0,0,.31.44,1.437,1.437,0,0,1,.43,1.03,2.105,2.105,0,0,1-.02.25,1.442,1.442,0,0,0,1.42,1.68,1.39,1.39,0,0,0,.67-.17,1.483,1.483,0,0,1,1.34,0,1.371,1.371,0,0,0,1.02.12Z"/><polygon fill="#f9e109" points="60 25 54 25 57 21 60 25"/><polygon fill="#f9e109" points="14 15 8 15 11 11 14 15"/></g></svg>